<svg width="81" height="60" viewBox="0 0 81 60" fill="none" xmlns="http://www.w3.org/2000/svg">
<g filter="url(#filter0_d_6_95)">
<path d="M12.8571 42.9522C12.8571 44.7708 13.5796 46.515 14.8656 47.8009C16.1515 49.0869 17.8957 49.8093 19.7143 49.8093C21.5329 49.8093 23.2771 49.0869 24.563 47.8009C25.849 46.515 26.5714 44.7708 26.5714 42.9522M12.8571 42.9522C12.8571 41.1336 13.5796 39.3894 14.8656 38.1035C16.1515 36.8175 17.8957 36.095 19.7143 36.095C21.5329 36.095 23.2771 36.8175 24.563 38.1035C25.849 39.3894 26.5714 41.1336 26.5714 42.9522M12.8571 42.9522H6V5.2379C6 4.32858 6.36122 3.45651 7.00421 2.81353C7.64719 2.17055 8.51926 1.80933 9.42857 1.80933H57.4286C61.9751 1.80933 66.3355 4.33789 69.5504 8.83876C72.7653 13.3396 74.5714 19.4441 74.5714 25.8093M26.5714 42.9522H54M54 42.9522C54 44.7708 54.7224 46.515 56.0084 47.8009C57.2944 49.0869 59.0385 49.8093 60.8571 49.8093C62.6758 49.8093 64.4199 49.0869 65.7059 47.8009C66.9918 46.515 67.7143 44.7708 67.7143 42.9522M54 42.9522C54 41.1336 54.7224 39.3894 56.0084 38.1035C57.2944 36.8175 59.0385 36.095 60.8571 36.095C62.6758 36.095 64.4199 36.8175 65.7059 38.1035C66.9918 39.3894 67.7143 41.1336 67.7143 42.9522M67.7143 42.9522H74.5714V25.8093M74.5714 25.8093H59.1429L54 1.80933M6 18.9522H57.4286M23.1429 1.80933V18.9522M40.2857 1.80933V18.9522" stroke="#030712" stroke-width="3" stroke-linecap="round" stroke-linejoin="round" shape-rendering="crispEdges"/>
</g>
<defs>
<filter id="filter0_d_6_95" x="0.5" y="0.309021" width="79.5715" height="59.0003" filterUnits="userSpaceOnUse" color-interpolation-filters="sRGB">
<feFlood flood-opacity="0" result="BackgroundImageFix"/>
<feColorMatrix in="SourceAlpha" type="matrix" values="0 0 0 0 0 0 0 0 0 0 0 0 0 0 0 0 0 0 127 0" result="hardAlpha"/>
<feOffset dy="4"/>
<feGaussianBlur stdDeviation="2"/>
<feComposite in2="hardAlpha" operator="out"/>
<feColorMatrix type="matrix" values="0 0 0 0 0 0 0 0 0 0 0 0 0 0 0 0 0 0 0.25 0"/>
<feBlend mode="normal" in2="BackgroundImageFix" result="effect1_dropShadow_6_95"/>
<feBlend mode="normal" in="SourceGraphic" in2="effect1_dropShadow_6_95" result="shape"/>
</filter>
</defs>
</svg>
