<svg width="32.086548" height="36.006104" viewBox="0 0 32.0865 36.0061" fill="none" xmlns="http://www.w3.org/2000/svg" xmlns:xlink="http://www.w3.org/1999/xlink">
	<desc>
			Created with Pixso.
	</desc>
	<defs/>
	<path id="Vector" d="M14.91 17.1914L0 33.0114L0 33.0254C0.161377 33.6246 0.458984 34.1786 0.869629 34.6439C1.2804 35.1091 1.79309 35.4733 2.36768 35.7076C2.94238 35.9421 3.56335 36.0406 4.18237 35.9955C4.80127 35.9503 5.40149 35.7628 5.93604 35.4474L5.97803 35.4194L22.75 25.7454L14.91 17.1914Z" fill="#EA4335" fill-opacity="1.000000" fill-rule="nonzero"/>
	<path id="Vector" d="M29.988 14.5033L29.974 14.4893L22.736 10.2893L14.574 17.5553L22.764 25.7454L29.974 21.5873C30.6117 21.2421 31.1445 20.7312 31.5164 20.1086C31.8881 19.486 32.0851 18.7747 32.0865 18.0494C32.0879 17.3243 31.8938 16.6122 31.5244 15.988C31.1552 15.364 30.6244 14.8511 29.988 14.5033Z" fill="#FBBC04" fill-opacity="1.000000" fill-rule="nonzero"/>
	<path id="Vector" d="M15.022 18.0033L22.736 10.2892L5.97803 0.573242C5.44226 0.25293 4.83972 0.0609131 4.21741 0.0123291C3.59521 -0.036377 2.97009 0.0596924 2.39111 0.292969C1.81213 0.526123 1.29504 0.890137 0.880127 1.35657C0.465332 1.823 0.164062 2.37903 0 2.9812L15.022 18.0033Z" fill="#34A853" fill-opacity="1.000000" fill-rule="nonzero"/>
</svg>
